<svg xmlns="http://www.w3.org/2000/svg" xmlns:xlink="http://www.w3.org/1999/xlink" viewBox="0 0 60.76 44.73"><defs><style>.cls-1{clip-path:url(#clip-path);}.cls-2{fill:none;}.cls-3{fill:url(#linear-gradient);}.cls-4{clip-path:url(#clip-path-2);}.cls-5{mask:url(#mask);}.cls-6{fill:url(#linear-gradient-2);}.cls-7{fill:#0ce5bb;}.cls-8{fill:#5bdb93;}</style><clipPath id="clip-path"><path class="cls-2" d="M27.68,0c-.34.23-.68.11-1,.11a12.7,12.7,0,0,0-4.1,1.6c-4,2-7.95,4.32-11.82,6.82a66.81,66.81,0,0,0-8,6A6.84,6.84,0,0,0,.84,17.06a1.12,1.12,0,0,0,.46.79c1.48,1.37,3,2.62,4.43,4,.23.23.46.57.8.46,2.16-1.59,4.32-3,6.48-4.32a131.2,131.2,0,0,1,12.4-7A8.37,8.37,0,0,1,28.14,10a11.17,11.17,0,0,1,5.11.79c7.17,2.5,13.53,6.71,19.67,11a1,1,0,0,1,.69.69c.45.22.68-.12.91-.46a19.18,19.18,0,0,0,4.09-4.43,1.41,1.41,0,0,0,.46-.91,5.07,5.07,0,0,0-1.26-1.82,21.22,21.22,0,0,0-3-2.62A87,87,0,0,0,43.71,5.46,61.82,61.82,0,0,0,35,1.14,35.88,35.88,0,0,0,30.19,0Z"/></clipPath><linearGradient id="linear-gradient" x1="-282.37" y1="-284.12" x2="-281.36" y2="-284.12" gradientTransform="translate(16197.94 16308.8) scale(57.36)" gradientUnits="userSpaceOnUse"><stop offset="0" stop-color="#fff"/><stop offset="1" stop-color="gray"/></linearGradient><clipPath id="clip-path-2"><path class="cls-2" d="M27.68,0c-.34.23-.68.11-1,.11a12.7,12.7,0,0,0-4.1,1.6c-4,2-7.95,4.32-11.82,6.82a66.81,66.81,0,0,0-8,6A6.84,6.84,0,0,0,.84,17.06a1.12,1.12,0,0,0,.46.79c1.48,1.37,3,2.62,4.43,4,.23.23.46.57.8.46,2.16-1.59,4.32-3,6.48-4.32a131.2,131.2,0,0,1,12.4-7A8.37,8.37,0,0,1,28.14,10a11.17,11.17,0,0,1,5.11.79c7.17,2.5,13.53,6.71,19.67,11a1,1,0,0,1,.69.69c.45.22.68-.12.91-.46a19.18,19.18,0,0,0,4.09-4.43,1.41,1.41,0,0,0,.46-.91,5.07,5.07,0,0,0-1.26-1.82,21.22,21.22,0,0,0-3-2.62A87,87,0,0,0,43.71,5.46,61.82,61.82,0,0,0,35,1.14,35.88,35.88,0,0,0,30.19,0Z"/></clipPath><mask id="mask" x="0.84" y="0" width="58.22" height="22.74" maskUnits="userSpaceOnUse"><g id="SVGID"><g class="cls-1"><rect class="cls-3" x="0.85" width="58.22" height="22.74"/></g></g></mask><linearGradient id="linear-gradient-2" x1="-282.37" y1="-284.12" x2="-281.36" y2="-284.12" gradientTransform="translate(16197.94 16308.8) scale(57.36)" gradientUnits="userSpaceOnUse"><stop offset="0" stop-color="#5bdb93"/><stop offset="1" stop-color="#00e9a5"/></linearGradient></defs><title>logo</title><g id="Layer_2" data-name="Layer 2"><g id="Layer_1-2" data-name="Layer 1"><g class="cls-4"><g class="cls-5"><rect class="cls-6" x="0.85" width="58.22" height="22.74"/></g></g><path class="cls-7" d="M53.65,22.32A4.17,4.17,0,0,0,55.45,21,17.29,17.29,0,0,0,59,16.61a9.83,9.83,0,0,1,1.12,9c-1.34,3.81-4,6.39-7.28,8.63-.33.22-.45,0-.67-.11a10.62,10.62,0,0,1-3.47-6.28A2.41,2.41,0,0,1,50,25a43,43,0,0,0,3.69-2.69"/><path class="cls-8" d="M.9,16.94c0,.23.11.34.33.45C3,19,4.59,20.53,6.5,22a43.64,43.64,0,0,0,5.15,3.69A89.94,89.94,0,0,0,27,33.53a11.3,11.3,0,0,0,3.7.89,6.77,6.77,0,0,0,3.81-1.23c.67-.34,1.23-.67,1.9-1,.45-.22.56-.11.56.34V42a1,1,0,0,1-.56,1,8.72,8.72,0,0,1-4.26,1.57c-.11,0-.22.11-.33.11H29.35c-3.25-.11-5.94-1.79-8.74-3.36C17.36,39.58,14.12,37.78,11,36a57,57,0,0,1-6.05-4.26,12.23,12.23,0,0,1-2.47-2.35A12.68,12.68,0,0,1,.22,24.56c-.11-.45,0-.78-.22-1.23V20.75C.11,20,0,19.19.11,18.4A1.33,1.33,0,0,1,.9,16.94"/></g></g></svg>